<?xml version="1.0" encoding="UTF-8" standalone="no"?>
<!-- Created with Inkscape (http://www.inkscape.org/) -->

<svg
   version="1.1"
   id="svg2"
   width="1400"
   height="1400"
   viewBox="0 0 1400 1400"
   sodipodi:docname="socials.png.svg"
   inkscape:version="1.1.2 (0a00cf5339, 2022-02-04)"
   inkscape:export-filename="/home/user/Desktop/IESC/IESC InfoAp Project/Socials Page/socials.png"
   inkscape:export-xdpi="96"
   inkscape:export-ydpi="96"
   xmlns:inkscape="http://www.inkscape.org/namespaces/inkscape"
   xmlns:sodipodi="http://sodipodi.sourceforge.net/DTD/sodipodi-0.dtd"
   xmlns="http://www.w3.org/2000/svg"
   xmlns:svg="http://www.w3.org/2000/svg">
  <defs
     id="defs6" />
  <sodipodi:namedview
     id="namedview4"
     pagecolor="#ffffff"
     bordercolor="#666666"
     borderopacity="1.0"
     inkscape:pageshadow="2"
     inkscape:pageopacity="0.0"
     inkscape:pagecheckerboard="0"
     showgrid="false"
     inkscape:zoom="0.42794691"
     inkscape:cx="318.9648"
     inkscape:cy="838.8891"
     inkscape:window-width="1920"
     inkscape:window-height="1012"
     inkscape:window-x="0"
     inkscape:window-y="0"
     inkscape:window-maximized="1"
     inkscape:current-layer="g8"
     width="1400px"
     inkscape:snap-others="true"
     inkscape:snap-nodes="false" />
  <g
     inkscape:groupmode="layer"
     inkscape:label="Image"
     id="g8">
    <path
       style="fill:#000000;fill-opacity:1;stroke-width:1.75"
       d="m 631.75,1252.5597 -67.35795,-67.375 H 609.44602 654.5 V 997.49866 809.81253 l -132.55291,132.5529 -132.55289,132.55297 32.34766,32.3831 32.34767,32.3832 H 357.41976 260.75 v -96.6698 -96.66977 l 32.38316,32.3477 32.38315,32.34767 L 458.0692,878.48755 590.62211,745.93464 H 402.93605 215.25 v 45.05969 45.05966 L 147.44032,768.24433 79.630659,700.43464 147.44032,632.62496 215.25,564.8153 v 45.05966 45.05968 H 402.93605 590.62211 L 458.0692,522.38173 325.51631,389.82884 293.13316,422.17651 260.75,454.52417 V 357.8544 261.18464 h 96.66976 96.66977 L 421.74186,293.5678 389.3942,325.95095 521.94709,458.50385 654.5,591.05676 V 403.37069 215.68464 H 609.44032 564.38065 L 632.19032,147.87497 700,80.065299 l 67.80968,67.809671 67.80967,67.80967 H 790.55968 745.5 V 403.37069 591.05676 L 878.05291,458.50385 1010.6058,325.95095 978.25812,293.5678 945.91052,261.18464 h 96.66968 96.6698 v 96.66976 96.66977 L 1106.8668,422.17651 1074.4837,389.82884 941.9308,522.38173 809.37789,654.93464 H 997.06392 1184.75 V 609.87496 564.8153 l 67.8097,67.80966 67.8096,67.80968 -67.8096,67.80969 -67.8097,67.80966 V 790.99433 745.93464 H 997.06392 809.37789 l 132.55291,132.55291 132.5529,132.55295 32.3831,-32.34767 32.3832,-32.3477 v 96.66977 96.6698 h -96.6698 -96.66978 l 32.3477,-32.3832 32.34768,-32.3831 L 878.05291,942.36543 745.5,809.81253 v 187.68613 187.68604 h 45.05398 45.05398 l -67.35796,67.375 c -37.04687,37.0562 -67.75937,67.375 -68.25,67.375 -0.49063,0 -31.20313,-30.3188 -68.25,-67.375 z"
       id="path4522" />
    <path
       style="fill:#17d08f;fill-opacity:1;stroke-width:1.4889"
       d="m 330.68066,928.02551 c 49.79703,-127.31385 181.00737,-461.38216 181.41386,-461.88909 0.30928,-0.38574 1.02841,0.0546 1.59805,0.97841 0.56965,0.92387 21.4272,53.04512 46.35013,115.82504 40.22998,101.33785 45.50585,113.75757 47.02058,110.68933 0.9384,-1.90082 21.41729,-53.8677 45.50868,-115.48196 24.09137,-61.6142 44.20042,-112.03219 44.68677,-112.03991 0.48635,-0.008 20.86126,50.40394 45.27757,112.0259 24.41634,61.62197 45.1686,113.59754 46.1161,115.50129 1.53252,3.07898 6.70693,-9.25817 46.83531,-111.66767 24.81185,-63.32101 45.57556,-115.63661 46.14157,-116.2569 0.56606,-0.62029 43.65025,-0.95529 95.74269,-0.74445 l 94.71363,0.38335 -91.91035,234.09487 c -50.55064,128.7522 -92.20524,234.38464 -92.56573,234.73867 -0.36049,0.35409 -22.0418,-51.05314 -48.18065,-114.23824 -26.13886,-63.18505 -47.9436,-115.72457 -48.45495,-116.75448 -0.51134,-1.02991 -21.67044,50.67387 -47.02019,114.8973 -25.34969,64.22348 -46.50641,116.32162 -47.01492,115.77374 -0.50851,-0.54793 -20.53413,-51.24677 -44.50141,-112.66409 -23.96727,-61.41722 -44.38101,-113.25323 -45.36386,-115.19107 -1.91317,-3.77207 -2.02687,-3.49772 -71.65298,172.86483 l -22.18117,56.18482 -92.66247,0.0212 -92.66248,0.0212 z"
       id="path211" />
  </g>
</svg>
